<?xml version="1.0" encoding="UTF-8"?>
<svg id="Layer_1" xmlns="http://www.w3.org/2000/svg" version="1.1" viewBox="0 0 1573 1000">
  <!-- Generator: Adobe Illustrator 29.0.0, SVG Export Plug-In . SVG Version: 2.1.0 Build 186)  -->
  <path d="M1516.55,456.47c12.01-40.17,19.1-81.43,18.34-123.22l-1.13-13.27-2.49-31.57-4.26-18.74-3.52-12c-.29-.99-2.33-2.98-2.45-2.6l-2.69.26-1.7-10.03-2.31.92c-.58.36-2.04-.09-2.24-.86l-.87-3.32-2.29-8.4c-1.38-5.05,2.37-18.08-2.83-17.12-1.44.27-3.34.6-3.21-.01l.67-3.02c.23-1.03.15-3.95-.79-3.97l-3.98-.09c-.85-.02-1.19-2.55-1.36-3.39l-.64-3.24c-.13-.64-4.97,1.73-8.66-6.27-5.43-.61-7.73-4.88-11.58-7.94l-17.92-14.26c-.87-.38-1.83-1.06-1.39-1.29l2.52-1.32c.54-.28,1.94-1.66,1.49-2.07l-2.35-2.13c-11.17-1.09-22.47-.84-33.84.51l-28.23,3.91c-4.45.62-9.92-1.5-14.71-2.11-8.22-1.05-19.44.42-25.63,6.57l-9.07,9.02c-7.22,7.18-15.38,12.16-24.75,16.2l-6.12,6.96c-3.57,1-5.05,3.41-4.42,7.17l-15.08,17.37c-1.79-.53-4.62-.63-5.27.49l-4.11,7.01c-1.7,2.9-2.47,5.11-5.24,6.87-3.72,2.36-4.47,7.04-6.3,10.69l-5,9.97c-1.77,3.53-4.69,5.96-8.13,6.38-2.69.33-8.6-1.14-8.75-4.61l-1.06-24-4.09-37.49c-.08-.71-1.61-2.27-2.2-2.21l-2.74.29-1.6-9.19c-.21-1.23-2.69-3.23-3.67-4.28l-10.77-11.53c-2.29-2.46,2.72-5.74.12-7.16-.87-.48-2.69-1.23-3.59-1.49-.91-.26-1.69,3.21-2.69,3.8-3.76,2.22-10.58.17-13.35-4.53-1.46-2.47-7.06-3.54-9.55-5.16l-2.82-1.83c-1.49-.96,4.84-3.4,3.85-4.55-.49-.56-2.47-1.74-3.22-1.69l-8.09.53-2.38.49-20.43-1.25c-2.28,1.42-2.1,2.3-.48,2.36,2.54.71,3.98,1.17,4.46,1.59l-8.63,1.96-10.27,1.3c-3.72.47-6.94.66-10.22,1.68-3.32,2.18-4.96,4.02-5.2,7.59-8.06,9.93-17.27,17.75-26.78,25.7-3.01,2.51-4.77,4.36-8.66,5.61-3.14,1-5.45,5.58-7.74,7.85-3.48,3.44-6.44,6.31-8.45,10.69-4.12,9.01-9.93,16.46-15.01,24.91l-31.23,52.03c-18.87,33.8-35.6,67.78-49.96,104.2-1.17,1.31-1.78.85-1.31-.72l-.92-12.67-1.64-26.78-3.84-29.05c-.09-.69-.78-1.96-1.28-1.78l-2.31.81-1.49-8.73c-.07-.44-1.31-2.08-1.56-1.74l-1.63,2.21s-.34-.02-1.36-.09c-2.85-5.11-4.53-9.73-6.37-15.11l-4.29-12.59c-1.28-1.25-3.51-3.36-4.49-5.02-1.5-2.53-3.35-3.61-5.82-5.51l-5.58-4.28c-.9-.69-2.12-3.17-2.76-4.53-2.51.32-4.82.19-6.93-.14,0,0,0,0,0,0-3.84-6.7-10.03-10.11-16.94-11.98,2.09-.55,3.47-1.33,3.5-3.85.02-1.72-2.78-4.62-4.55-4.52l-12.09.69-9.98,1.26,1.42-1.1,4.97-2.7c-4.91-1.13-7.42-1.1-11.82-.53l-11.19,1.45c-3.1.4,1.61,3.24.27,3.55l-9.7,2.27-1.75.42c-3.98.95-10.13-.81-19.05,4.7,0,0,.52.4,2.08,1.55,1.64-.73,1.57-.17.54.77l-1.86.72-4.25,1.1c-1.11,2.36-4.14,5.59-6.55,5.74-6.15.38-6.59,5.03-9.73,8.38-7.9,8.43-13.95,8.54-14.93,15.42l-5.23,5.56-20.79,28.19-17.17,25.32c-.9,1.26-1.44,1.36-1.04-.43,4.05-18.49,7.58-36.52,6.7-55.32l-.62-13.12c-.38-8.02-.84-16.83-3.06-24.41-1.1-3.76-3.87-7.25-4.66-11.36-.17-.87-1.4-3.06-2.25-2.91l-3.33.59-1.9-8.59-5.54-2.72c.39-1.92,1.03-5.04.07-5.5l-4.13-1.98-2.53-1.61c-.45-.29.62-2.25.89-2.79-1.41-5.59-8.03-5.84-12.32-7.42-9.17-3.4-16.73-8.08-25.17-12.75-1.61-.89-3.26-3-4.19-4.76-12.67-5.44-26.25-6.49-40.12-7.21-28.85-1.49-57.12.25-85.87,5.18-.75-11.14-1.9-21.3-5.19-31.82l-5.8-6.51c-3.42,5.26-7.1,5.58-12.42,3.63-2.99,4.11-6.3,9.14-7.8,13.95l-8.34,26.88-31.26,11.57c-3.62,1.34-6.33,1.29-9.24,4.09-2.37,2.28-7.87,1.66-10.84,3.11l-12.76,6.24c-3.74,1.83-7.3,3.37-11.27,4.42l-.16,2.72c-.03.47-1.9.79-2.5.94-3.34.81-5.01,3.94-4.55,6.96l-3.72,3.02c-.77.62,1.45,3.1,1.12,4.03l-1.66,4.67c-.38,1.07,2.37,2.48,3.77,3.04.2,8.12-10.08,6.66-8.83,12.84,1.1,5.43,8,1.87,10.29,6.15,1.89,3.53-8.25,3.38-10.03,8.3,1.66,1.03,4.18,2.6,3.67,3.52-1.79,3.19-7.49,2.12-6.6,4.84.28.86,1.9,2.36,2.76,2.58l2.98.76c.38.1-.47,1.51-.78,1.72l-2.1,1.4c-.47.31.39,2.27.98,2.69,4.59,3.26,12.53,4.32,18.94,4.81l12.49.96c1.26.1,2.1,3.71,1.71,4.79-8.84,24.29-16.8,47.76-23.58,72.64l-16.26,59.69-4.2,12.74-4.23,17.25-3.03-3.64-2.43,12.65c-.89,4.63-2.97,8.45-8.64,7.88l-19.99-2.01c-3.26-.33-8.14,1.21-9.6,4.16,2.4,8.02-6.25,14.9-3.58,17.4l3.78,3.54.05,3.69c.01.93,6.27,2.1,9.46,5.25-6.95,4.98-13.19,11.29-20.72,15.81-4.61,2.76-8.32,5.89-11.42,9.63-.04.03-.08.06-.12.09-1.35-2.19,1.33-6.46-.04-7.62l-2.36-2,.33-4.31c.07-.92-2.81-.39-3.66.21-11.3,7.9-18.76,7.83-16.23,12.25-4.47,2.74-9.56,5.1-14.78,6.75l-16.58,13.38-36.32,26.65-20.07,14.92c-16.78,12.47-34.87,21.35-55.97,23.08-11.84.97-23.13.97-34.44-2.6-5.66-1.79-9.65-5.48-13.81-9.1-2.47-2.15-4.15-3.66-5.75-6.57l-4.96-9.04c-14.72-26.82-8.76-75.29.31-105.51l2.67-14.97c3.82-6.19,6.4-12.98,6.93-20.32.26-3.67,2.96-6.61,4.15-9.82,10.16-27.46,21.67-53.61,35.57-79.45,8.18-15.21,17.33-28.72,27.06-42.89l17.82-25.98c2.72.96,4.46.29,5.56-1.61l4.32-7.49c3.11-1.48,2.67-5.6,4.08-7.19l15.11-17.07,10.12-9.69c14.1-13.49,30.37-22.83,49.64-26.43,5.23-.98,11.72-1.83,15.83,2.51,10,10.55,7.11,38.84,4.7,56.04-.72,5.14-1.05,9.02-.11,14.76l6.82-7.85,3.5,4.68c.25.18,3.84-1.42,5.19-1.39l12.2.24c2.99,9.37-2.97,15.45.2,19.15.34.4,1.49,0,1.69-.5l1.03-2.51c1.92-4.68,2.66-10.24,5.45-14.47l2.25-3.4c.49-.74,2.81-.03,4.28.32l6.42-7.25,3,4.56,1.59,1c2.21,1.39,5.53-10.29,8-16.88l6.82-18.2c4.83-16.65,8.55-32.9,10.87-50.16.69-5.1.63-9.93,0-14.99l.63-29.17-1.33-2.03c-.23-.36-.96.89-1.16,1.33l-1.86,1.31.37-9.81c.11-2.77-1.2-5.18-3.08-7.21-1-8.11-.07-17.92-5.73-24.46l-6.44-7.45-4.28-3.88c-5.55-5.03-11.26-9.09-17.83-13.58l5.26-3.45c-13.03-10.4-34.53-10.18-51.32-8.34-6.97.76-13.32,2.85-19.88,4.97-8.15,2.63-16.16,3.31-23.22,9.89l7.15,2.18c-22.57,9.17-48.8,28.27-62.47,47.46l-7.03,9.87-1.88-11.38,4.52-7.38c.22-.36.32-2.38-.08-2.23l-2.17.81c-18.65,17.81-36.11,36.24-52.52,56.26-1.24,4.56-3.65,7.71-6.92,11.17-3.04,2.69-6.73,4.72-9.84,7.19-7.29,5.81-13.7,13.03-19.42,20.47-5.53,7.2-9.1,15.43-14.1,22.88-4.5,6.71-9.04,13.06-12.66,20.26-1.97,3.92-5.22,6.94-7.47,10.64-15.72,25.83-27.75,52.88-40.61,80.26l-9.28,19.77c-.24,1.11-.48,2.23-.73,3.34-1.82,8.14-3.97,16.24-6.97,24.04-2.83,7.38-6.58,14.42-9.03,21.93-2.46,7.53-2.83,14.96-3.23,22.87-.43,8.54-.86,17.07-1.28,25.61-.87,17.4-1.75,34.8-2.62,52.21-.11,2.23-.73,4.38-1.73,6.3l-1.94,22.29c-1.56,17.9-.38,34.96-.13,52.84l4.06-2.1.85,13.16,1.37,12.04,2.27,20.06c.24,2.14,1.84,3.44,4.16,4.61l1.92,9.36c1.03,5.03,1.28,8.28,4.69,12.12l2.61,8.87,5.01,7.55,4.42,7.03c7.77,2.54,3,8.25,8.63,11.51,3.27,1.89,4.89,4.7,5.82,8.34,4.39.06,7.7,2.45,9.61,6.15,4.32,2.18,7.31,5.46,10.04,9.25l5.51,3.14-.77,7.39c10.23,3.91,21.4,6.49,32.05,7.42,5.08.44,10.56.66,15.72,1.58.06-.22.14-.43.2-.66l19.47-1.11c18.72-1.07,37.84-3.8,54.72-12.4l21.28-10.84c1.74-1.46,4.49-3.89,6.61-5.19l18.48-11.35c.94-2.65,2.41-4,4.8-5.34,11.22-6.31,21.06-13.92,31.26-21.74.79-.6,3.61-.73,3.81-1.69l.81-3.8,8.35-5.5,17.05-14.99,9.8-9.28,8.66-8.4c1.76-1.71,3.44-3.97,5.03-5.8l11.85-13.71c1.44-1.67-.87-7.57,3.56-8.28l9.54-1.53-14.78,53.59-18.92,73.99-6.56,24.4-8.41,27.62-3.4,12.82c-1.22,4.6-1.88,8.24-2.31,12.92l-1.93,20.85c3.03,1.34,5.88,3.32,8.36,5.88.88.9,1.71,1.88,2.53,2.83,1.05-.53,2.14-.52,3.27.23,3.09,2.05,5.67.92,9.04-.74,1.92,2.17,3.42,5.55,4.21,8.89,9.04,1.69,18.71,1.48,28.07-.45,2.07-3.02,5.08-5.19,8.29-6.96l2.97-1.65c.94-.52,2.51,1.19,3.65,3.95,1.79-.77,3.55-1.59,5.27-2.49,2.05-1.07,4.15-1.64,6.22-1.75.06-.24.12-.49.18-.73l6.03-20.22,6.5-14.48,12.1-34.96,11.7-44.31,16.74-65.07,8.13-32.59,3.39.19,10.73-44.11,12.26,17.3c7.62.86,4.09,7.24,12,13.03,1.89,1.39,3.57,6.09,4.85,7.95,3.18,2.72,5.38,5.05,7.77,8.35l6.58,9.08c5.15,1.35,5.78,5.27,8.4,8.97l35.24,49.56,9.39,13.81,34.4,50.59,28.61,39.32c-.81,3.95,1.61,6.21,5.02,6.87l11.51,13.84c.06,3.17,1.17,6.25,4.48,7.31,4.9-5.83-.07-12.99,6.19-16.17l3.27,4.3c.64.84,3.13-.03,4.71-.33l4.57,9.5c5.52-1.91,5.03,3.83,12.77,13.23,2.99,3.63,4.73,8.45,6.07,12.9,3.8-.07,7.1,1.6,8.07,6.21.03.12.05.24.07.36,1.3-.64,2.67-1.18,4.11-1.59,3.53-.99,6.63-.66,9.22.53,1.52-7.5,4.71-13.94,7.83-12.53l4.74,2.14c1.19.54,4.86.62,5.28-.62.36-1.03,0-3.12-.37-4.37l-1.92-6.57-2.18-9.39c-2.49-5.58-3.55-9.78-.54-15.4,6.21-11.64,2.24-26.92-.5-26.88l-5.14.08c-4.38-1.77-3.41-9.22-3.7-13.31-.85-11.95-6.66-17.93-7.34-25.3-.35-3.78-2.73-6.49-5.68-8.49-1.36-1.41-2.13-5.95-3.2-7.73l-4.49-7.49-8.08-13.96c-1.87-3.24-3.06-6.3-4.36-9.99-2.94-8.33-10.95-11.92-8.89-25.42.76-4.96-3.35-9.03-7.21-8.69l-4.97-4.5-7.57-9.17-15.72-21.56-13.97-22.02c-4.98-3.43-3.3-10.06-6.85-11.3-1.47-.51-3.06-.99-3.72-1.69-1.66-1.78.53-7.1-1.6-6.8l-2.98.42-3.72-10.55-3.25-2.42c-.66-.49.48-6.68-1.08-6.53l-3.43.33c-1.28-1.8-2.21-6.43-2.65-9.06-3.08-1.36-5.92-2.68-5.7-6.44.06-1.06-.07-4.06-1.01-4.33l-4.55-1.31-4.14-12.38-3.74.68c-3.5-6.92-8.06-12.18-12.67-18.52-1.55-2.13-2.34-6.23-4.56-8.41,10.85-8.59,23.91-14.46,35.85-21.98l19.52-12.31,19.5-11.42-6.64-3.29c1.32-.96,5.33-2.85,7.87-3.86,2.93-3.27,6.23-5.01,10.33-7.56l14.14-8.78c26.32-17.67,48.41-38.54,69.17-63.22l-10.53,31.03c-17.45,51.43-33.01,108.44-30.67,162.69.61,14.04.3,27.59,3.32,41.27.68,3.08,3.64,6.77,2.77,10.65-1.41,6.3,1.18,11.4,5.93,15.24l1.56,7.49,2.92,8.19c2.16,1.13,4.57,2.68,5.74,5.27l4.76,10.58c3.12,1.99,4.75,3.29,6.36,5.98,3.22,5.41,9.58,9.18,14.8,13.61,4.88,1.06,9.87,2.93,13.78,5.9,2.79,4.18,8.15,3.17,12.04,1.53,4.43-1.87,8.45.92,12.67,1.65,9.14,1.59,19.46-2.11,26.97-6.98,2.22-6.11,9.71-4.66,13.34-8.57,3.13-3.37,6.09-4.93,10.19-6.28,1.13-1.94,2.98-4.39,4.71-6.06l29.47-28.54c11.62-12.94,21.68-25.73,30.14-41.01l51.88-93.76c.83,41.82.3,83.56,13.78,121.91l5.71,12.3c7.82,16.85,18.78,32.07,34.6,42.32l9.89,6.41,11.39,3.31c2.48,1.3,3.99,3.42,4.9,5.85,5.41.54,10.83,1.07,16.24,1.61,1.88-2.82,4.46-5.06,7.54-5.7l18.51-3.82,11.24-3.86,20.95-11.85c14.88-9.67,28.46-20.35,40.2-33.63l8.02-9.06,7.17-8.89,30.17-40.78,15.91-19.48,4.47,17.56,3.84,18.14,3.82,13.99,2.53-7.15,4.72,15.93c5.93.89,7.5,7.04,7.26,12.39,7.75,2.32,4.22,9.86,7.2,10.34l4.25.68,2.82,5.84,10.91,7.35,6.25,1.64,1.14,5.77,22.95,4.46-3.28,3.44c.76,1.08,5.18,2.73,7.67,2.7l20.32-.2c3.38-.03,6.07-1.76,9.01-3.88l9.39-2.99c6.15-1.96,12.16-3.47,18.22-3.97,1.03,1.01,2.1,2.63,2.8,4.29,1.35-1.04,2.88-1.92,4.53-2.58,2.57-1.03,5.22-1.89,7.92-2.58,8.09-3.82,15.23-10.66,22.54-16.36.52-.41,1.05-.82,1.57-1.22.63-2.35,1.52-4.59,2.7-6.41l.96-1.49c.33-.5,1.67-1.59,2.14-1.22l1.78,1.39,1.1-1c2.68-2.43,3.6-5.85,2.28-9.69l6.96-8c-.15-4.33,1.51-8.75,5.78-9.25,4.61-.53,2.32-11.78,11.5-11.43,3.08.12,5.14-3.47,7.31-5.95,5.2-12.44,12.23-24.1,20.97-34.56-3.1.72-5.06,1.28-3.69-1.14,25.37-44.81,45.84-91.67,60.66-141.25ZM365.62,613.54c-.01-.1-.02-.21-.04-.32.74-.93,1.48-1.86,2.19-2.81.23.44.5.85.81,1.25-.98.63-1.97,1.26-2.96,1.88ZM737.84,851.69c-.14.85-.33,1.58-.61,2.11-.27.52-.66.42-1.19.06.7-.61,1.31-1.34,1.8-2.17ZM675.23,334.19c-1.77,9.32-5.71,17.95-11.2,25.88-7.74,11.17-16.31,21.38-26.46,30.49-9.64,8.64-19.28,17.02-30.42,23.43l-12.53,8.58-29.61,19.47c-11.88,7.82-24.05,13.71-37.15,20.04l13.89-57.1,8.46-29.67,6.22-21.66,4.95-2.59c3.11-9.22,6.24-18.39,6.21-29.4l-4.31,6.54c-1.18-4.38,2.13-8.23,3.32-12.42l2.1-7.41c23.8-3.81,47.51-4.8,71.56-1.64,7.42.98,14.99,4.47,21.41,7.3.5,1.39,1.9,4.04,3.21,4.34,6.45,1.48,11.83,8.08,10.36,15.82ZM890.84,481.57l-20.08,40.26c-10.16,20.38-41.63,70.26-60.85,77.36-6.94,2.57-12.69-1.4-14.42-7.86-6.57-24.42-1.51-54,4.77-79.02,7.61-30.29,18.78-58.81,33.83-86.11,9.14-16.57,27.25-41.64,44.08-47.06,6.7-2.16,13.38,2.32,16.15,8.65,12.04,27.54,4.42,64.71-3.48,93.77ZM1278.5,295.87c-2.1,7.14-5.45,14.64-10.3,20.16-2.03.93-3.38,2.18-4.59,4.63l-7.01,14.16c-14.87,30.03-27.69,60.64-35.02,93.57-6.61,29.69-9.42,58.78-13.28,88.86-6.77,6.06-15.13-1.84-29.17,9.92l-9.69,8.11c-.41,7.84-7.91,3.91-11.04,12.42l-8.87,7.44c-2.42,2.03-3.02,4.32-5.13,6.24-12.64,11.5-24.82,22.63-39.43,31.49-11.36,6.88-24.26,9.89-37.39,7.35-23.04-4.46-23.42-39.69-21.79-62.19,1.35-18.6,4.79-35.98,9.27-54.05,6.07-24.46,14.91-47.07,24.44-70.44,11.14-27.31,23.34-53.16,38.53-78.37,12.88-21.39,29.89-47.94,54.6-52.56,6.43-1.2,12.95,4.25,12.83,11.08l-.61,35.3c-.15,8.6,1.29,17.12,2.96,24.79l.73,3.37c.38,1.76,6.07-1.44,9.07,3.8,6.77-2.92,12.23-8.4,16.36-15.15,1.02-1.66,4.87-3.13,6.19-4.59l10.43-11.53,1.64,5.53,6.36-15.47c2.68-.85,4.44-2.37,5.16-4.99l7.99-29.09c.39-1.43,1.9-4,3.13-4.43,1.42-.5,4.43.95,5.93,2.23l8.73.97,3.65,6.52c3.03-.66,6.18,1.99,5.32,4.92ZM1431.06,447.16c-12.71,41.72-32.05,80.57-59.24,114.48-8.4,10.47-18.97,18.3-31.04,22.88-12.75,4.84-25.81,1.01-33.53-9.84-26.04-36.62-6.5-122.45,8.5-165.91,9.12-26.4,20.82-51.06,34.91-74.97l13.2-19.88,14.87-17.28c1.9-2.2,5.64-1.4,7.45-.24,3.15,2.02,2.7,5.32.65,8.83l5.01,6.25,7.33-6.58,1.51-6.3c11.38-9.59,29.21-8.01,34.56,3.09,19.32,40.08,8.84,102.71-4.18,145.47Z"/>
</svg>